<?xml version="1.0" encoding="UTF-8"?> <svg xmlns="http://www.w3.org/2000/svg" id="Layer_1" data-name="Layer 1" width="921" height="765" viewBox="0 0 921 765"><defs><style>.cls-1,.cls-8{fill:none;}.cls-1{stroke:#f58320;stroke-linecap:round;stroke-width:2px;stroke-dasharray:0 5;}.cls-12,.cls-2{fill:#cfdfff;}.cls-11,.cls-3{fill:#6464f4;}.cls-10,.cls-4{fill:#7c9be8;}.cls-5,.cls-9{fill:#a4c0f4;}.cls-6{fill:#ccd4dd;}.cls-14,.cls-7{fill:#eef3fb;}.cls-8{stroke:#6464f4;stroke-miterlimit:10;stroke-width:0.5px;}.cls-10,.cls-11,.cls-12,.cls-14,.cls-15,.cls-9{fill-rule:evenodd;}.cls-13{fill:#d9e0eb;}.cls-15{fill:#caeefc;}.cls-16{fill:#f58220;}.cls-17{fill:#8dc6ff;opacity:0.4;isolation:isolate;}</style></defs><title>i</title><path class="cls-1" d="M351.22,283.35c-146.52,72.17-254.44-5.41-314.13,68C34.93,354,4.33,392.79,14.19,436c8.82,38.62,45.22,59.73,54.74,65.26C125,533.75,169.15,505.71,191,532.8c22.53,27.88-18.27,65-2.1,107.36,25.57,66.93,177,103.21,243,48.54,39-32.3,26.56-78.35,78.36-111.7,35-22.55,73.6-22.6,87-22.45,69.08.76,84.26,42.9,138.94,36.49,33.42-3.92,73.59-25,85.61-60.35,18.44-54.17-40.34-109.38-43.51-112.27-33.84-30.95-52.93-17.81-119.29-51.93-46.28-23.8-41.29-32.4-104.14-68.22-48.78-27.79-75.07-42.39-110.24-43.51C404.12,253.46,376.53,270.89,351.22,283.35Z"></path><path class="cls-2" d="M524.43,674.8c-1.55,22.59-20.24,36.14-29.09,42.54-36.57,26.45-87,19.06-110.69,6.24a187.4,187.4,0,0,1-27.34-18,198,198,0,0,0-27.11-19.08c-16.16-9.46-21.76-9.64-26.43-16.35-8.52-12.22-5.18-33.51,4.91-46.8,18.64-24.58,58.23-19,69.26-17.48a104.41,104.41,0,0,1,26,7.21c5.95,5.95,15.37,13.46,28.25,16,9.49,1.89,13.64-.35,27.09-1.13,18.42-1.08,34.85-2,47.51,7C519.11,643.76,525.42,660.28,524.43,674.8Z"></path><path class="cls-3" d="M489.15,514.93V691H369.69V514.93a12.32,12.32,0,0,1,12.22-12.43h95A12.33,12.33,0,0,1,489.15,514.93Z"></path><path class="cls-4" d="M489.15,514.93V691H475.22V502.5h1.71A12.33,12.33,0,0,1,489.15,514.93Z"></path><rect class="cls-5" x="388.05" y="520.73" width="65.63" height="129.26"></rect><rect class="cls-5" x="463.5" y="539.83" width="11.72" height="24.74"></rect><rect class="cls-2" x="475.22" y="539.83" width="4.82" height="24.74"></rect><rect class="cls-4" x="463.5" y="573" width="11.72" height="13.83"></rect><rect class="cls-5" x="475.22" y="573" width="4.82" height="13.83"></rect><rect id="Rectangle_442" data-name="Rectangle 442" class="cls-4" x="388.05" y="546.86" width="65.63" height="5.86"></rect><rect id="Rectangle_442-2" data-name="Rectangle 442" class="cls-4" x="388.05" y="575.02" width="65.63" height="5.86"></rect><rect id="Rectangle_442-3" data-name="Rectangle 442" class="cls-4" x="388.05" y="603.17" width="65.63" height="5.86"></rect><rect id="Rectangle_442-4" data-name="Rectangle 442" class="cls-4" x="388.05" y="631.33" width="65.63" height="5.86"></rect><polygon class="cls-2" points="462.12 657.54 381.62 657.54 380.23 663.2 463.5 663.2 462.12 657.54"></polygon><polygon class="cls-2" points="462.12 665.94 381.62 665.94 380.23 671.6 463.5 671.6 462.12 665.94"></polygon><polygon class="cls-2" points="462.12 674.34 381.62 674.34 380.23 680 463.5 680 462.12 674.34"></polygon><rect class="cls-5" x="378.95" y="510.54" width="85.83" height="6.57"></rect><rect class="cls-2" x="398.04" y="585.36" width="7.62" height="17.76"></rect><rect class="cls-4" x="398.04" y="591.11" width="7.62" height="6.26"></rect><rect class="cls-2" x="411.05" y="585.36" width="7.62" height="17.76"></rect><rect class="cls-4" x="411.05" y="591.11" width="7.62" height="6.26"></rect><rect class="cls-2" x="424.05" y="585.36" width="7.62" height="17.76"></rect><rect class="cls-4" x="424.05" y="591.11" width="7.62" height="6.26"></rect><rect class="cls-2" x="437.05" y="585.36" width="7.62" height="17.76"></rect><rect class="cls-4" x="437.05" y="591.11" width="7.62" height="6.26"></rect><path class="cls-4" d="M402.81,531.47l.62,1.17a1.39,1.39,0,0,1,.17.67v12.07a1,1,0,0,1-1,1h-6.75a1,1,0,0,1-1-1v-12.1a1.39,1.39,0,0,1,.2-.72l.58-.95a1.12,1.12,0,0,0,.15-.56h6.91A.77.77,0,0,0,402.81,531.47Z"></path><path class="cls-6" d="M401.67,546.92H396.8a.57.57,0,0,1-.47-.26l-.19-.29h6.19l-.19.29A.57.57,0,0,1,401.67,546.92Z"></path><rect class="cls-6" x="395.68" y="530.71" width="7.16" height="0.33" rx="0.15"></rect><polygon class="cls-5" points="394.87 535.87 403.6 539.5 403.6 541.32 394.87 537.73 394.87 535.87"></polygon><circle class="cls-3" cx="399.27" cy="538.45" r="3.06"></circle><path class="cls-3" d="M432.3,531.37l.63,1.16a1.45,1.45,0,0,1,.17.67v12.07a1,1,0,0,1-1,1h-6.74a1,1,0,0,1-1-1V533.18a1.35,1.35,0,0,1,.21-.73l.57-1a1,1,0,0,0,.16-.56h6.9A.91.91,0,0,0,432.3,531.37Z"></path><path class="cls-6" d="M431.16,546.81H426.3a.55.55,0,0,1-.47-.25l-.2-.29h6.2l-.19.29A.58.58,0,0,1,431.16,546.81Z"></path><rect class="cls-6" x="425.18" y="530.61" width="7.16" height="0.33" rx="0.15"></rect><polygon class="cls-7" points="431.6 538.6 428.76 539.42 425.86 538.6 425.86 536.29 428.73 535.28 431.6 536.29 431.6 538.6"></polygon><path class="cls-3" d="M447.05,531.37l.63,1.16a1.45,1.45,0,0,1,.17.67v12.07a1,1,0,0,1-1,1h-6.74a1,1,0,0,1-1-1V533.18a1.35,1.35,0,0,1,.21-.73l.57-1a1.1,1.1,0,0,0,.16-.56H447A.91.91,0,0,0,447.05,531.37Z"></path><path class="cls-6" d="M445.91,546.81h-4.86a.55.55,0,0,1-.47-.25l-.2-.29h6.2l-.2.29A.55.55,0,0,1,445.91,546.81Z"></path><rect class="cls-6" x="439.93" y="530.61" width="7.16" height="0.33" rx="0.15"></rect><rect class="cls-4" x="439.11" y="534.52" width="8.74" height="8.27"></rect><path class="cls-4" d="M417.56,531.37l.62,1.16a1.45,1.45,0,0,1,.17.67v12.07a1,1,0,0,1-1,1h-6.74a1,1,0,0,1-1-1V533.18a1.44,1.44,0,0,1,.21-.73l.57-1a1,1,0,0,0,.16-.56h6.9A.81.81,0,0,0,417.56,531.37Z"></path><path class="cls-6" d="M416.41,546.81h-4.86a.55.55,0,0,1-.47-.25l-.2-.29h6.2l-.19.29A.58.58,0,0,1,416.41,546.81Z"></path><rect class="cls-6" x="410.43" y="530.61" width="7.16" height="0.33" rx="0.15"></rect><path class="cls-5" d="M409.61,534.52c0,2.46,8.74,2.73,8.74,4.9v3.41c0-1.89-8.74-2.93-8.74-4.7Z"></path><path class="cls-4" d="M448.63,559.87v15.21H434.26V559.87Z"></path><path class="cls-3" d="M448.63,562.76V575H434.26v-2.45c0-1.8,2.93-3.33,6.15-4.76l2.22-1c.43-.19.87-.37,1.27-.56s1-.48,1.52-.71C447.29,564.62,448.63,563.71,448.63,562.76Z"></path><rect class="cls-2" x="437.18" y="565.36" width="8.29" height="0.98" rx="0.44"></rect><path class="cls-4" d="M409,575H394.57V559.87h14.36v6a0,0,0,0,1,0,0Z"></path><path class="cls-3" d="M409,565.85V575H394.57v-4.84c0-3.93,14.07-1.25,14.36-4.2a0,0,0,0,0,0,0S409,565.87,409,565.85Z"></path><polygon class="cls-4" points="394.32 575.74 394.21 576.12 394.19 576.12 394.32 575.74"></polygon><ellipse class="cls-2" cx="401.76" cy="567.79" rx="2.44" ry="2.36"></ellipse><rect class="cls-2" x="396.76" y="561.28" width="8.76" height="0.61" rx="0.27"></rect><rect class="cls-2" x="396.76" y="562.46" width="8.76" height="0.61" rx="0.27"></rect><rect class="cls-4" x="414.17" y="559.87" width="14.38" height="15.13"></rect><rect class="cls-3" x="414.17" y="561.88" width="14.37" height="2.29"></rect><rect class="cls-3" x="414.17" y="570.98" width="14.37" height="2.29"></rect><rect class="cls-2" x="416.28" y="566.44" width="10.17" height="0.82" rx="0.37"></rect><rect class="cls-2" x="416.28" y="567.9" width="10.17" height="0.82" rx="0.37"></rect><rect class="cls-2" x="437.18" y="567.3" width="8.29" height="0.98" rx="0.44"></rect><line class="cls-8" x1="332.33" y1="691" x2="526.51" y2="691"></line><rect class="cls-4" x="395.96" y="617.69" width="5.26" height="13.73"></rect><rect class="cls-3" x="396.9" y="616.47" width="3.37" height="1.22"></rect><rect class="cls-4" x="410.14" y="617.69" width="5.26" height="13.73"></rect><rect class="cls-3" x="411.09" y="616.47" width="3.37" height="1.22"></rect><rect class="cls-4" x="424.33" y="617.69" width="5.26" height="13.73"></rect><rect class="cls-3" x="425.28" y="616.47" width="3.37" height="1.22"></rect><rect class="cls-4" x="438.52" y="617.69" width="5.26" height="13.73"></rect><rect class="cls-3" x="439.46" y="616.47" width="3.37" height="1.22"></rect><path class="cls-2" d="M496.46,407.27c-2.08-24.14,13.32-46.19,30.7-56,21.46-12.15,50.28-8.15,53.32-7.7,11.09,1.66,21,5.38,33,.55,5.17-2.08,6.43-4,15.79-9.91a158,158,0,0,1,25.2-13.36c40.54-17.31,77.6-16.93,90.32-17.67a125.43,125.43,0,0,1,28.15,1.73A203.81,203.81,0,0,1,820.27,318c24.55,10.2,43.75,18.17,59.23,37.06,16.27,19.85,32,56.16,18.14,87.95-7.95,18.16-22.4,27.57-34.08,35.18-33.82,22-69.35,20.86-85.2,20.34-11.33-.37-51.71-2.19-88.5-27.49-14.81-10.19-14.39-14.11-25.28-18.14-26.56-9.82-40.65,9.23-80.92,11-12.76.56-45.1,2-67.83-19.3C511.85,440.89,498.23,427.76,496.46,407.27Z"></path><polygon class="cls-9" points="586.57 284.66 714.73 217.93 840.11 284.66 840.11 431.61 586.57 431.61 586.57 284.66"></polygon><polygon class="cls-10" points="586.57 284.66 659.32 246.84 710.15 223.23 713.28 221.78 716.53 223.23 779.89 252.62 840.11 284.66 840.11 298.27 713.28 239.87 586.57 298.27 586.57 284.66"></polygon><rect class="cls-4" x="586.57" y="417.16" width="253.54" height="14.45"></rect><polygon class="cls-3" points="570.79 276.71 710.15 212.27 713.28 210.7 716.53 212.27 855.89 276.71 849.51 290.8 713.28 227.69 577.17 290.8 570.79 276.71"></polygon><rect class="cls-4" x="646.07" y="330.79" width="134.54" height="100.82"></rect><path class="cls-11" d="M640.89,303.81h144.9a4.16,4.16,0,0,1,4.09,4.22v3.25a4.06,4.06,0,0,1-4.09,4.1H640.89a4.06,4.06,0,0,1-4.09-4.1V308a4.16,4.16,0,0,1,4.09-4.22Z"></path><rect class="cls-7" x="646.07" y="315.38" width="134.54" height="42.04"></rect><path class="cls-2" d="M655.59,324.89h115.5a2.21,2.21,0,0,0,2.29-2.29,2.29,2.29,0,0,0-2.29-2.29H655.59a2.29,2.29,0,0,0-2.29,2.29A2.21,2.21,0,0,0,655.59,324.89Z"></path><path class="cls-2" d="M771.09,347.9H655.59a2.21,2.21,0,0,0-2.29,2.29,2.28,2.28,0,0,0,2.29,2.28h115.5a2.28,2.28,0,0,0,2.29-2.28A2.21,2.21,0,0,0,771.09,347.9Z"></path><path class="cls-2" d="M771.09,329.47H655.59a2.28,2.28,0,0,0-2.29,2.29,2.22,2.22,0,0,0,2.29,2.29h115.5a2.22,2.22,0,0,0,2.29-2.29A2.28,2.28,0,0,0,771.09,329.47Z"></path><path class="cls-2" d="M771.09,338.74H655.59A2.22,2.22,0,0,0,653.3,341a2.19,2.19,0,0,0,2.29,2.17h115.5a2.19,2.19,0,0,0,2.29-2.17A2.22,2.22,0,0,0,771.09,338.74Z"></path><polygon class="cls-10" points="586.57 431.61 550.92 431.61 550.92 325.25 586.57 312.49 586.57 431.61"></polygon><rect class="cls-3" x="550.92" y="417.16" width="35.65" height="14.45"></rect><polygon class="cls-10" points="840.11 431.61 875.76 431.61 875.76 325.25 840.11 312.49 840.11 431.61"></polygon><rect class="cls-3" x="840.11" y="417.16" width="35.65" height="14.45"></rect><rect class="cls-3" x="660.64" y="357.41" width="105.39" height="74.2"></rect><path class="cls-12" d="M656.9,431.61h32.88a1.32,1.32,0,0,0,1.33-1.2v-33a1.24,1.24,0,0,0-1.33-1.2H656.9a1.13,1.13,0,0,0-1.2,1.2v33a1.2,1.2,0,0,0,1.2,1.2Z"></path><rect class="cls-4" x="670.63" y="396.2" width="5.42" height="10.96"></rect><path class="cls-12" d="M696.47,431.61h22.7a.91.91,0,0,0,.92-.83V408a.86.86,0,0,0-.92-.83h-22.7a.79.79,0,0,0-.84.83v22.79a.84.84,0,0,0,.84.83Z"></path><rect class="cls-4" x="705.95" y="407.16" width="3.74" height="7.57"></rect><path class="cls-12" d="M788.08,431.61h45.41a1.72,1.72,0,0,0,1.68-1.68V384.39a1.72,1.72,0,0,0-1.68-1.68H788.08a1.83,1.83,0,0,0-1.81,1.68v45.54a1.83,1.83,0,0,0,1.81,1.68Z"></path><rect class="cls-4" x="806.99" y="382.71" width="7.47" height="18.79"></rect><path class="cls-12" d="M747.49,431.61h26.62a1,1,0,0,0,1-1V404a.88.88,0,0,0-1-1H747.49a1,1,0,0,0-1,1v26.62a1,1,0,0,0,1,1Z"></path><rect class="cls-4" x="758.69" y="403.07" width="4.34" height="7.71"></rect><line class="cls-8" x1="514.88" y1="431.61" x2="912.88" y2="431.61"></line><path class="cls-2" d="M408.1,318.24c0-23-27.13-47.55-54.42-54.28-32.2-7.95-42.23,12-91.52,14.07-52.17,2.2-61.64-19.26-97.7-12.06-41.46,8.27-76.45,50.29-73,81.42.24,2.18,1.82,16.22,12.38,25,11,9.15,24.07,6.23,38.34,7.42,28,2.33,34.22,18.31,60.6,29.68,43.53,18.77,109.75,11.05,136-21.9,10.2-12.78,11.18-25.35,27.21-34.18,14.54-8,28.71-5.9,37.1-18.09A30.22,30.22,0,0,0,408.1,318.24Z"></path><rect class="cls-3" x="175.12" y="48.53" width="26.77" height="291.13"></rect><rect class="cls-13" x="168.42" y="41.83" width="6.69" height="297.83"></rect><polygon class="cls-10" points="201.89 48.53 235.35 48.53 295.59 148.92 295.59 339.66 201.89 339.66 201.89 48.53"></polygon><polygon class="cls-9" points="253.42 78.64 235.35 48.53 208.58 48.53 208.58 339.66 225.28 339.66 253.42 78.64"></polygon><rect class="cls-3" x="295.59" y="148.92" width="26.77" height="190.74"></rect><polygon class="cls-14" points="235.35 48.53 295.59 148.92 322.36 148.92 235.35 48.53"></polygon><polygon class="cls-15" points="241.38 58.56 201.89 58.56 201.89 68.6 247.4 68.6 241.38 58.56"></polygon><polygon class="cls-9" points="253.42 78.64 201.89 78.64 201.89 88.68 259.45 88.68 253.42 78.64"></polygon><polygon class="cls-9" points="265.47 98.72 201.89 98.72 201.89 108.76 271.49 108.76 265.47 98.72"></polygon><polygon class="cls-9" points="277.52 118.8 201.89 118.8 201.89 128.84 283.54 128.84 277.52 118.8"></polygon><polygon class="cls-9" points="289.56 138.88 201.89 138.88 201.89 148.92 295.59 148.92 289.56 138.88"></polygon><rect class="cls-5" x="201.89" y="158.96" width="93.7" height="10.04"></rect><rect class="cls-5" x="201.89" y="179.03" width="93.7" height="10.04"></rect><rect class="cls-5" x="201.89" y="199.11" width="93.7" height="10.04"></rect><rect class="cls-5" x="201.89" y="219.19" width="93.7" height="10.04"></rect><rect class="cls-5" x="201.89" y="239.27" width="93.7" height="10.04"></rect><rect class="cls-5" x="201.89" y="259.35" width="93.7" height="10.04"></rect><rect class="cls-5" x="201.89" y="279.43" width="93.7" height="10.04"></rect><rect class="cls-5" x="201.89" y="299.5" width="93.7" height="10.04"></rect><rect class="cls-5" x="201.89" y="319.58" width="93.7" height="10.04"></rect><polygon class="cls-12" points="241.38 58.56 208.58 58.56 208.58 68.6 247.4 68.6 241.38 58.56"></polygon><polygon class="cls-12" points="253.42 78.64 208.58 78.64 208.58 88.68 252.35 88.68 253.42 78.64"></polygon><polygon class="cls-12" points="251.28 98.72 208.58 98.72 208.58 108.76 250.18 108.76 251.28 98.72"></polygon><polygon class="cls-12" points="249.11 118.8 208.58 118.8 208.58 128.84 248.03 128.84 249.11 118.8"></polygon><polygon class="cls-12" points="246.93 138.88 208.58 138.88 208.58 148.92 245.86 148.92 246.93 138.88"></polygon><polygon class="cls-12" points="244.79 158.96 208.58 158.96 208.58 169 243.69 169 244.79 158.96"></polygon><polygon class="cls-12" points="242.61 179.03 208.58 179.03 208.58 189.07 241.54 189.07 242.61 179.03"></polygon><polygon class="cls-12" points="240.44 199.11 208.58 199.11 208.58 209.15 239.37 209.15 240.44 199.11"></polygon><polygon class="cls-12" points="238.3 219.19 208.58 219.19 208.58 229.23 237.19 229.23 238.3 219.19"></polygon><polygon class="cls-12" points="236.12 239.27 208.58 239.27 208.58 249.31 235.02 249.31 236.12 239.27"></polygon><polygon class="cls-12" points="233.95 259.35 208.58 259.35 208.58 269.39 232.88 269.39 233.95 259.35"></polygon><polygon class="cls-12" points="231.77 279.43 208.58 279.43 208.58 289.46 230.7 289.46 231.77 279.43"></polygon><polygon class="cls-12" points="229.63 299.5 208.58 299.5 208.58 309.54 228.53 309.54 229.63 299.5"></polygon><polygon class="cls-12" points="227.46 319.58 208.58 319.58 208.58 329.62 226.38 329.62 227.46 319.58"></polygon><rect class="cls-4" x="295.59" y="158.96" width="26.77" height="10.04"></rect><rect class="cls-4" x="295.59" y="179.03" width="26.77" height="10.04"></rect><rect class="cls-4" x="295.59" y="199.11" width="26.77" height="10.04"></rect><rect class="cls-4" x="295.59" y="219.19" width="26.77" height="10.04"></rect><rect class="cls-4" x="295.59" y="239.27" width="26.77" height="10.04"></rect><rect class="cls-4" x="295.59" y="259.35" width="26.77" height="10.04"></rect><rect class="cls-4" x="295.59" y="279.43" width="26.77" height="10.04"></rect><rect class="cls-4" x="295.59" y="299.5" width="26.77" height="10.04"></rect><rect class="cls-4" x="295.59" y="319.58" width="26.77" height="10.04"></rect><rect class="cls-4" x="175.12" y="58.56" width="26.77" height="10.04"></rect><rect class="cls-4" x="175.12" y="78.64" width="26.77" height="10.04"></rect><rect class="cls-4" x="175.12" y="98.72" width="26.77" height="10.04"></rect><rect class="cls-4" x="175.12" y="118.8" width="26.77" height="10.04"></rect><rect class="cls-4" x="175.12" y="138.88" width="26.77" height="10.04"></rect><rect class="cls-4" x="175.12" y="158.96" width="26.77" height="10.04"></rect><rect class="cls-4" x="175.12" y="179.03" width="26.77" height="10.04"></rect><rect class="cls-4" x="175.12" y="199.11" width="26.77" height="10.04"></rect><rect class="cls-4" x="175.12" y="219.19" width="26.77" height="10.04"></rect><rect class="cls-4" x="175.12" y="239.27" width="26.77" height="10.04"></rect><rect class="cls-4" x="175.12" y="259.35" width="26.77" height="10.04"></rect><rect class="cls-4" x="175.12" y="279.43" width="26.77" height="10.04"></rect><rect class="cls-4" x="175.12" y="299.5" width="26.77" height="10.04"></rect><rect class="cls-4" x="175.12" y="319.58" width="26.77" height="10.04"></rect><rect class="cls-7" x="201.89" y="41.83" width="33.46" height="6.69"></rect><rect class="cls-13" x="175.12" y="41.83" width="26.77" height="6.69"></rect><rect class="cls-7" x="201.89" y="41.83" width="6.69" height="297.83"></rect><line class="cls-8" x1="127.02" y1="339.66" x2="363.76" y2="339.66"></line><path id="Path_3724" data-name="Path 3724" class="cls-16" d="M333.56,359.13a3.87,3.87,0,0,0-2-1.17c-1.73-.42-3.45.2-3.83,1.4a13.07,13.07,0,0,1-8.55,7.94,25.76,25.76,0,0,1-14.78.54c-1.74-.42-3.45.2-3.83,1.4s.72,2.5,2.47,2.94a34.33,34.33,0,0,0,19.62-.73c5.85-2.13,9.89-5.88,11.37-10.55A1.88,1.88,0,0,0,333.56,359.13Z"></path><path id="Path_3725" data-name="Path 3725" class="cls-5" d="M346.3,362.25a3.85,3.85,0,0,0-2-1.17c-1.74-.42-3.46.2-3.83,1.4-3.83,12.09-21.25,18.44-38.84,14.14-1.74-.43-3.46.19-3.83,1.39s.72,2.51,2.47,2.94c21.05,5.15,41.91-2.44,46.5-16.93A1.86,1.86,0,0,0,346.3,362.25Z"></path><path id="Path_3726" data-name="Path 3726" class="cls-5" d="M359.07,365.38a3.87,3.87,0,0,0-2-1.17c-1.74-.43-3.45.2-3.83,1.39-5.35,16.94-29.75,25.83-54.38,19.8-1.74-.43-3.45.19-3.83,1.39s.72,2.51,2.47,2.94c28.1,6.88,55.94-3.25,62-22.58A1.83,1.83,0,0,0,359.07,365.38Z"></path><path id="Path_3727" data-name="Path 3727" class="cls-3" d="M371,368.29a3.75,3.75,0,0,0-2-1.17c-1.74-.43-3.45.2-3.83,1.39-6.78,21.45-37.66,32.69-68.85,25.06-1.74-.42-3.46.2-3.83,1.4s.72,2.51,2.47,2.94c34.65,8.48,69-4,76.51-27.85A1.86,1.86,0,0,0,371,368.29Z"></path><g id="Group_1708" data-name="Group 1708"><path id="Path_5890" data-name="Path 5890" class="cls-16" d="M620.48,193.62l-1.82,20.86-20.86-1.82A22,22,0,0,1,620.48,193.62Z"></path><path class="cls-4" d="M645.44,222.22l-21-.87c.09-1,0-.43.09-1l1.91-21.85A22,22,0,0,1,645.44,222.22Z"></path><path class="cls-2" d="M645.44,222.22a22,22,0,0,1-43.83-2.82l21.85,1.91h.1Z"></path></g><path class="cls-7" d="M403.78,138.61h0l-2.95,1.48-.52-2.3,3.91-1.93h2.55v16.07h-3Z"></path><path class="cls-7" d="M368.88,168.61c0,5.17-2,8.41-5.86,8.41s-5.69-3.36-5.71-8.26,2.13-8.35,5.88-8.35S368.88,163.87,368.88,168.61Zm-8.51.15c0,3.91,1.07,5.94,2.75,5.94s2.72-2.18,2.72-6-.89-5.93-2.72-5.93C361.49,162.73,360.35,164.73,360.37,168.76Z"></path><path class="cls-7" d="M541.66,185.46h0l-2.94,1.48-.52-2.3,3.91-1.93h2.54v16.07h-2.94Z"></path><path class="cls-2" d="M446.23,174.6c0,5.16-2,8.4-5.86,8.4s-5.68-3.36-5.71-8.25,2.13-8.36,5.89-8.36S446.23,169.85,446.23,174.6Zm-8.5.15c0,3.9,1.06,5.93,2.74,5.93s2.72-2.18,2.72-6-.89-5.93-2.72-5.93C438.84,168.72,437.7,170.72,437.73,174.75Z"></path><path class="cls-2" d="M512.25,106h0l-3,1.48-.52-2.29,3.91-1.93h2.55V119.3h-3Z"></path><path class="cls-7" d="M477.35,136c0,5.16-2,8.4-5.86,8.4s-5.69-3.36-5.71-8.25,2.13-8.36,5.88-8.36S477.35,131.24,477.35,136Zm-8.51.15c0,3.9,1.07,5.93,2.75,5.93s2.72-2.18,2.72-6-.89-5.93-2.72-5.93C470,130.11,468.82,132.11,468.84,136.14Z"></path><path class="cls-7" d="M178.63,482.59h0l-2.94,1.48-.52-2.3,3.9-1.92h2.55v16.06h-2.94Z"></path><path class="cls-2" d="M720.37,512h0l-2.94,1.48-.52-2.3,3.91-1.92h2.54v16.06h-2.94Z"></path><path class="cls-7" d="M51.78,297.68h0l-3,1.48-.52-2.3,3.91-1.93h2.55V311H51.78Z"></path><path class="cls-7" d="M108.6,476.29c0,5.17-2,8.41-5.85,8.41s-5.69-3.36-5.71-8.26,2.12-8.35,5.88-8.35S108.6,471.55,108.6,476.29Zm-8.5.15c0,3.91,1.06,5.93,2.74,5.93s2.72-2.17,2.72-6-.89-5.93-2.72-5.93C101.21,470.41,100.08,472.41,100.1,476.44Z"></path><path class="cls-7" d="M279.14,621.28h-.05l-2.94,1.49-.52-2.3,3.91-1.93h2.54v16.07h-2.94Z"></path><path class="cls-7" d="M230.43,620.49c0,5.17-2,8.41-5.86,8.41s-5.69-3.36-5.71-8.26,2.13-8.35,5.88-8.35S230.43,615.75,230.43,620.49Zm-8.51.15c0,3.91,1.07,5.93,2.75,5.93s2.72-2.17,2.72-6-.89-5.93-2.72-5.93C223,614.61,221.9,616.61,221.92,620.64Z"></path><path class="cls-2" d="M250,557.38h-.05L247,558.86l-.52-2.3,3.91-1.92h2.54V570.7H250Z"></path><path class="cls-7" d="M224.4,528.59c0,5.17-2,8.4-5.85,8.4s-5.69-3.36-5.71-8.25,2.12-8.36,5.88-8.36S224.4,523.84,224.4,528.59Zm-8.5.15c0,3.9,1.07,5.93,2.75,5.93s2.71-2.17,2.71-6-.89-5.93-2.71-5.93C217,522.71,215.88,524.71,215.9,528.74Z"></path><path class="cls-7" d="M81.86,237h0l-2.94,1.48-.52-2.3,3.9-1.93H84.8v16.07H81.86Z"></path><path class="cls-7" d="M141.84,239c0,5.17-2,8.41-5.86,8.41s-5.68-3.36-5.71-8.26,2.13-8.35,5.88-8.35S141.84,234.3,141.84,239Zm-8.51.15c0,3.91,1.07,5.93,2.75,5.93s2.72-2.17,2.72-6-.89-5.93-2.72-5.93C134.45,233.16,133.31,235.16,133.33,239.19Z"></path><path class="cls-2" d="M60.79,437h0l-3,1.48-.52-2.3,3.91-1.93h2.55v16.07h-3Z"></path><path class="cls-7" d="M57.28,386c0,5.16-2,8.4-5.85,8.4s-5.69-3.36-5.71-8.25,2.12-8.36,5.88-8.36S57.28,381.29,57.28,386Zm-8.5.15c0,3.9,1.07,5.93,2.75,5.93s2.71-2.18,2.71-6-.89-5.93-2.71-5.93C49.89,380.16,48.76,382.16,48.78,386.19Z"></path><path class="cls-7" d="M610.76,161.2h0l-2.94,1.48-.52-2.3,3.9-1.93h2.55v16.07h-2.94Z"></path><path class="cls-7" d="M585.82,136c0,5.16-2,8.4-5.86,8.4s-5.69-3.36-5.71-8.25,2.13-8.36,5.88-8.36S585.82,131.24,585.82,136Zm-8.51.15c0,3.9,1.07,5.93,2.75,5.93s2.72-2.18,2.72-6-.89-5.93-2.72-5.93C578.43,130.11,577.29,132.11,577.31,136.14Z"></path><path class="cls-7" d="M630.25,589.68c0,5.16-2,8.4-5.86,8.4s-5.68-3.36-5.71-8.25,2.13-8.36,5.88-8.36S630.25,584.93,630.25,589.68Zm-8.51.15c0,3.9,1.07,5.93,2.75,5.93s2.72-2.18,2.72-6-.89-5.93-2.72-5.93C622.86,583.8,621.72,585.8,621.74,589.83Z"></path><path class="cls-7" d="M618.58,534.82h0l-2.95,1.48-.52-2.29,3.91-1.93h2.55v16.07h-2.95Z"></path><path class="cls-7" d="M524.81,540.18h0l-2.94,1.49-.52-2.3,3.91-1.93h2.55v16.07h-3Z"></path><path class="cls-2" d="M583.68,570.88c0,5.16-2,8.4-5.86,8.4s-5.69-3.36-5.71-8.26,2.13-8.35,5.88-8.35S583.68,566.13,583.68,570.88Zm-8.51.14c0,3.91,1.07,5.94,2.75,5.94s2.72-2.18,2.72-6-.89-5.94-2.72-5.94C576.29,565,575.15,567,575.17,571Z"></path><path class="cls-7" d="M750,567.28h0l-3,1.48-.52-2.3,3.91-1.92H753V580.6h-3Z"></path><path class="cls-7" d="M780.89,544.5h0l-3,1.48-.52-2.29,3.91-1.93h2.55v16.07h-3Z"></path><path class="cls-2" d="M689.43,561.13c0,5.16-2,8.4-5.86,8.4s-5.69-3.36-5.71-8.26,2.13-8.35,5.88-8.35S689.43,556.38,689.43,561.13Zm-8.51.14c0,3.91,1.07,5.94,2.75,5.94s2.72-2.18,2.72-6-.89-5.94-2.72-5.94C682,555.24,680.9,557.24,680.92,561.27Z"></path><path id="Path_3918-2" data-name="Path 3918-2" class="cls-17" d="M532.16,616.5c-17.93-.68-31.36,10.46-30,24.88s17,26.68,34.94,27.36,31.36-10.46,30-24.88-17-26.68-35-27.36"></path><path id="Path_3921-2" data-name="Path 3921-2" class="cls-16" d="M542.32,615.55c11,.42,20.69,8,21.53,16.85l12.47.48c-1.36-14.43-17-26.68-34.94-27.36Z"></path><path id="Path_3922-2" data-name="Path 3922-2" class="cls-5" d="M560.5,659.36c7.33-4.47,11.63-11.81,10.83-20.29l-12.46-.48c.52,5.52-2.47,10.25-7.45,12.95Z"></path><path id="Path_3923" data-name="Path 3923" class="cls-4" d="M533,626.61c-11-.42-19.32,6.44-18.47,15.33s10.48,16.43,21.52,16.85a21.51,21.51,0,0,0,10.79-2.25l7.9,8.51A34.85,34.85,0,0,1,537,668.82c-17.93-.68-33.58-12.93-34.94-27.35s12.06-25.57,30-24.89Z"></path><circle class="cls-5" cx="466.34" cy="594.08" r="1.5"></circle><circle class="cls-5" cx="471.53" cy="594.08" r="1.5"></circle></svg> 